<?xml version="1.0" encoding="UTF-8"?><svg id="a" xmlns="http://www.w3.org/2000/svg" viewBox="0 0 24 24"><defs><style>.b{fill:none;stroke:#000;stroke-linecap:round;stroke-linejoin:round;stroke-width:2px;}</style></defs><path class="b" d="M13,2h-7c-1.1,0-2,.9-2,2v16c0,1.1.9,2,2,2h12c1.1,0,2-.9,2-2v-11l-7-7Z"/><polyline class="b" points="13 2 13 9 20 9"/><path d="M6.2,11.31h1.78c1.21,0,1.8.67,1.8,1.9v.76c0,1.23-.59,1.9-1.8,1.9h-.57v3.13h-1.21v-7.7ZM7.99,14.78c.38,0,.59-.18.59-.73v-.91c0-.55-.21-.73-.59-.73h-.57v2.37h.57Z"/><path d="M10.45,11.31h1.85c1.21,0,1.8.67,1.8,1.9v3.89c0,1.23-.59,1.9-1.8,1.9h-1.85v-7.7ZM12.28,17.91c.38,0,.62-.2.62-.75v-4c0-.55-.23-.75-.62-.75h-.62v5.5h.62Z"/><path d="M14.92,11.31h3.2v1.1h-1.99v2.15h1.56v1.1h-1.56v3.36h-1.21v-7.7Z"/></svg>