<?xml version="1.0" encoding="UTF-8"?><svg id="a" xmlns="http://www.w3.org/2000/svg" viewBox="0 0 24 24"><path d="M2.68,2.7l18.47-.02c1.34.13,2.41,1.2,2.51,2.55v13.18c-.1,1.22-.99,2.22-2.19,2.48-6.14.16-12.31.02-18.46.07-1.35-.09-2.37-.91-2.69-2.23-.1-4.6-.1-9.24,0-13.84.24-1.16,1.17-2.06,2.36-2.21ZM2.92,4.55c-.36.06-.62.28-.74.62l-.02,13.11c.01.42.38.79.8.8,6.08-.03,12.18.05,18.25-.04.37-.14.58-.47.6-.86V5.43c-.03-.49-.41-.87-.9-.9H2.92Z"/><path d="M11.05,10.47h-1.85c.06-1.24-1.1-2.11-2.28-1.73-.52.17-1.04.77-1.12,1.32-.1.76-.07,2.56,0,3.35.17,2.24,3.55,1.99,3.41-.27h1.85c.12,2.76-2.79,4.58-5.25,3.28-1.16-.61-1.82-1.82-1.9-3.11s-.15-3.64.5-4.76c1.86-3.21,6.81-1.76,6.65,1.91Z"/><path d="M20,10.47h-1.85c-.05-2.36-3.28-2.48-3.46-.03-.05.76-.05,1.91,0,2.68.16,2.55,3.39,2.43,3.46.02h1.85c.07,1.23-.58,2.47-1.61,3.13-1.94,1.26-4.63.36-5.35-1.84-.31-.93-.26-3.2-.2-4.23.09-1.42.98-2.68,2.31-3.18,2.4-.9,4.93.91,4.84,3.45Z"/></svg>